<?xml version="1.0" encoding="utf-8"?>
<!-- Generator: Adobe Illustrator 25.4.1, SVG Export Plug-In . SVG Version: 6.00 Build 0)  -->
<svg version="1.1" id="Capa_1" xmlns="http://www.w3.org/2000/svg" xmlns:xlink="http://www.w3.org/1999/xlink" x="0px" y="0px"
	 viewBox="0 0 334 654" style="enable-background:new 0 0 334 654;" xml:space="preserve">
<style type="text/css">
	.st0{fill:#BBDCE2;}
</style>
<g>
	<g>
		<circle class="st0" cx="258.6" cy="27.9" r="121"/>
	</g>
	<g>
		<path class="st0" d="M302.1,228.6c-2.1,0-4.2-0.7-5.9-2c-1.7-1.3-2.9-3.2-3.4-5.4c-0.6-2.5-0.1-5,1.2-7.2c1.4-2.1,3.5-3.6,5.9-4.2
			c27.1-6.1,53-18.6,74.8-36c1.7-1.4,3.7-2.1,5.9-2.1c2.9,0,5.6,1.3,7.4,3.6c1.4,1.7,2.1,3.8,2.1,6c0,2.9-1.3,5.6-3.6,7.4
			c-11.9,9.5-24.9,17.7-38.6,24.3c-14,6.8-28.7,11.9-43.8,15.3C303.5,228.6,302.8,228.6,302.1,228.6z M214.8,228.6
			c-0.7,0-1.4-0.1-2.1-0.2c-15.1-3.4-29.8-8.6-43.8-15.4c-13.7-6.6-26.7-14.8-38.6-24.4c-2-1.6-3.2-3.8-3.5-6.4c-0.3-2.5,0.4-5,2-7
			c1.8-2.3,4.5-3.6,7.4-3.6c2.2,0,4.2,0.7,5.9,2.1c21.8,17.4,47.7,29.9,74.8,36.1c2.1,0.5,4,1.7,5.3,3.4c1.3,1.7,2,3.8,2.1,5.9
			c0,0.7-0.1,1.4-0.2,2.1c-0.5,2.1-1.7,4-3.4,5.4C219,227.9,217,228.6,214.8,228.6z M435.2,122.7L435.2,122.7c-1.4,0-2.8-0.3-4.1-1
			c-2.3-1.1-4-3-4.8-5.4c-0.8-2.4-0.7-5,0.4-7.2c12.2-25.3,18.5-52.6,18.5-80.9c0-5.2,4.3-9.5,9.5-9.5h0c5.2,0,9.5,4.3,9.5,9.5l0,0
			c0,15.7-1.8,31.3-5.3,46.4c-3.4,14.7-8.5,29.1-15.1,42.7c0,0,0,0,0,0C442.2,120.6,438.8,122.7,435.2,122.7z M81.8,122.5
			c-3.6,0-7-2.1-8.6-5.4c-6.6-13.6-11.6-28-15-42.8C54.7,59.2,53,43.6,53,27.9v-0.5c0-5.2,4.3-9.5,9.5-9.5h0c5.2,0,9.5,4.3,9.5,9.5
			v0.4c0,28.4,6.2,55.6,18.4,80.9c0.6,1.3,1,2.7,1,4.1c0,3.6-2.1,7-5.4,8.6C84.7,122.2,83.3,122.5,81.8,122.5z M435.4-47.5
			c-3.6,0-7-2.1-8.6-5.4c-12-25.1-29.9-47.5-51.7-65c-2.3-1.8-3.6-4.5-3.6-7.4c0-2.2,0.7-4.2,2.1-6c1.8-2.3,4.5-3.6,7.4-3.6
			c2.2,0,4.2,0.7,5.9,2.1c12,9.6,22.9,20.5,32.4,32.5c9.6,12.1,17.9,25.2,24.5,39.1c2.3,4.7,0.3,10.4-4.4,12.7
			C438.2-47.8,436.8-47.5,435.4-47.5z M82-48c-1.4,0-2.8-0.3-4.1-0.9c-3.3-1.6-5.4-5-5.4-8.6c0-1.4,0.3-2.8,1-4.1
			c6.7-13.8,15-27,24.7-39c9.6-12,20.5-22.8,32.5-32.4c0,0,0,0,0,0c1.7-1.4,3.7-2.1,5.9-2.1c2.9,0,5.6,1.3,7.5,3.6
			c1.6,2,2.3,4.5,2,7c-0.3,2.5-1.5,4.8-3.5,6.4c-21.8,17.4-39.8,39.8-51.9,64.8C89-50.1,85.6-48,82-48z M302.5-153.7
			c-0.7,0-1.4-0.1-2.1-0.2c-27.1-6.2-55.9-6.2-83-0.1l-0.1,0h0c-2.7,0.6-5.8-0.1-8-1.8c-1.7-1.3-2.9-3.2-3.4-5.4
			c-0.2-0.7-0.2-1.4-0.2-2.1c0-2.1,0.7-4.2,2.1-5.9c1.3-1.7,3.2-2.9,5.3-3.3c29.8-6.7,61.6-6.7,91.5,0.1c5.1,1.2,8.3,6.3,7.1,11.4
			c-0.5,2.1-1.7,4-3.4,5.3C306.7-154.5,304.6-153.7,302.5-153.7z"/>
	</g>
</g>
<g>
	<path class="st0" d="M491.7,614.4H250.1v-259h241.6V614.4z M269.1,595.4h203.6v-221H269.1V595.4z"/>
</g>
</svg>
