<?xml version="1.0" encoding="utf-8"?>
<!-- Generator: Adobe Illustrator 25.4.1, SVG Export Plug-In . SVG Version: 6.00 Build 0)  -->
<svg version="1.1" id="Capa_1" xmlns="http://www.w3.org/2000/svg" xmlns:xlink="http://www.w3.org/1999/xlink" x="0px" y="0px"
	 viewBox="0 0 612 163" style="enable-background:new 0 0 612 163;" xml:space="preserve">
<style type="text/css">
	.st0{fill:url(#SVGID_1_);}
	.st1{fill:#FFFFFF;}
	.st2{fill:#C8F8E3;}
</style>
<g>
	
		<linearGradient id="SVGID_1_" gradientUnits="userSpaceOnUse" x1="210.78" y1="46.05" x2="210.78" y2="-130.3839" gradientTransform="matrix(1 0 0 -1 -129.6 34.4)">
		<stop  offset="0" style="stop-color:#00E9B6"/>
		<stop  offset="1" style="stop-color:#007FC3"/>
	</linearGradient>
	<path class="st0" d="M150.7,46.4L116.2,12c-2.8-2.8-6.7-4.4-10.7-4.4H56.8c-4,0-7.9,1.6-10.7,4.4L11.7,46.4
		c-2.8,2.8-4.4,6.7-4.4,10.7v24.3v24.4c0,4,1.6,7.9,4.4,10.7L46.1,151c2.8,2.8,6.7,4.4,10.7,4.4h48.7c4,0,7.9-1.6,10.7-4.4
		l34.4-34.4c2.8-2.8,4.4-6.7,4.4-10.7V81.4V57.1C155.1,53.1,153.5,49.3,150.7,46.4z"/>
	<g>
		<path class="st1" d="M201.5,124.2c-5.1-2.2-9.2-5.3-12.2-9.2s-4.6-8.5-4.9-13.7h14.5c0.4,4.2,2.4,7.7,5.9,10.3c3.6,2.7,8.2,4,14,4
			c5.3,0,9.6-1.2,12.6-3.6c3.1-2.4,4.6-5.3,4.6-8.9c0-3.7-1.6-6.4-4.9-8.2c-3.3-1.8-8.4-3.6-15.3-5.3c-6.3-1.6-11.4-3.3-15.3-5
			c-4-1.7-7.4-4.2-10.2-7.6c-2.8-3.3-4.2-7.7-4.2-13.2c0-4.3,1.3-8.3,3.9-11.9c2.6-3.6,6.2-6.5,10.9-8.6s10.1-3.2,16.2-3.2
			c9.4,0,16.9,2.4,22.7,7.1c5.8,4.7,8.8,11.2,9.2,19.4h-14c-0.3-4.4-2.1-8-5.3-10.6s-7.6-4-13-4c-5,0-9.1,1.1-12,3.2s-4.5,5-4.5,8.5
			c0,2.8,0.9,5.1,2.7,6.9c1.8,1.8,4.1,3.2,6.8,4.3c2.7,1.1,6.5,2.3,11.3,3.6c6.1,1.7,11,3.3,14.8,4.9c3.8,1.6,7.1,4,9.8,7.2
			c2.7,3.2,4.1,7.3,4.2,12.5c0,4.6-1.3,8.8-3.9,12.5s-6.2,6.6-10.9,8.7c-4.7,2.1-10.1,3.2-16.1,3.2
			C212.4,127.5,206.6,126.4,201.5,124.2z"/>
		<path class="st1" d="M346.1,89.1h-67.5c0.5,8.3,3.4,14.8,8.6,19.5s11.5,7,18.9,7c6.1,0,11.1-1.4,15.2-4.2
			c4.1-2.8,6.9-6.6,8.6-11.3h15.1c-2.3,8.1-6.8,14.7-13.6,19.8c-6.8,5.1-15.2,7.6-25.3,7.6c-8,0-15.2-1.8-21.5-5.4
			s-11.3-8.7-14.9-15.3c-3.6-6.6-5.4-14.3-5.4-23.1s1.8-16.4,5.2-23s8.4-11.6,14.7-15.2c6.3-3.5,13.6-5.3,21.8-5.3
			c8,0,15.1,1.8,21.3,5.2c6.2,3.5,10.9,8.3,14.3,14.4c3.3,6.1,5,13,5,20.7C346.6,83.3,346.5,86.2,346.1,89.1z M328.6,63.9
			c-2.4-3.9-5.6-6.8-9.6-8.8c-4.1-2-8.6-3-13.5-3c-7.1,0-13.1,2.3-18.1,6.8c-5,4.5-7.8,10.8-8.6,18.8h53.4
			C332.1,72.4,330.9,67.8,328.6,63.9z"/>
		<path class="st1" d="M431.3,49.4c6.4,6.2,9.6,15.2,9.6,26.9v49.8H427V78.3c0-8.4-2.1-14.9-6.3-19.3c-4.2-4.5-10-6.7-17.3-6.7
			c-7.4,0-13.3,2.3-17.7,6.9s-6.5,11.4-6.5,20.2v46.7h-14V41.6h14v12c2.8-4.3,6.5-7.7,11.3-10c4.8-2.4,10-3.5,15.8-3.5
			C416.6,40.1,424.9,43.2,431.3,49.4z"/>
		<path class="st1" d="M495.3,113.2l26.2-71.6h15l-33.2,84.5H487l-33.2-84.5h15.1L495.3,113.2z"/>
		<path class="st1" d="M550.8,25.1c-1.8-1.9-2.8-4.1-2.8-6.8c0-2.7,0.9-4.9,2.8-6.8s4.1-2.8,6.8-2.8c2.6,0,4.8,0.9,6.5,2.8
			s2.7,4.1,2.7,6.8c0,2.7-0.9,4.9-2.7,6.8s-4,2.8-6.5,2.8C554.9,27.9,552.7,27,550.8,25.1z M564.4,41.6v84.5h-14V41.6H564.4z"/>
		<path class="st1" d="M588.7,25.1c-1.8-1.9-2.8-4.1-2.8-6.8c0-2.7,0.9-4.9,2.8-6.8c1.8-1.9,4.1-2.8,6.8-2.8c2.6,0,4.8,0.9,6.5,2.8
			s2.7,4.1,2.7,6.8c0,2.7-0.9,4.9-2.7,6.8s-4,2.8-6.5,2.8C592.8,27.9,590.6,27,588.7,25.1z M602.3,41.6v84.5h-14V41.6H602.3z"/>
	</g>
	<g>
		
			<image style="overflow:visible;enable-background:new    ;" width="183" height="131" xlink:href="3301D7FC.png"  transform="matrix(1 0 0 1 -10 18)">
		</image>
	</g>
	<g>
		<path class="st2" d="M55.4,60.5v-6.5c16,0,29,13,29,29h-6.5C77.9,70.7,67.8,60.5,55.4,60.5z"/>
		<path class="st2" d="M129.6,83.1h6.5c0,16-13,29-29,29v-6.5C119.4,105.7,129.6,95.6,129.6,83.1z"/>
		<path class="st1" d="M107,60.5v-6.5c16,0,29,13,29,29h-6.5C129.6,70.7,119.4,60.5,107,60.5z"/>
		<path class="st2" d="M107,105.7L107,105.7v6.5l0,0c-16,0-29-13-29-29h6.5C84.4,95.6,94.5,105.7,107,105.7z"/>
		<path class="st1" d="M107,54.1L107,54.1v6.5l0,0c-12.4,0-22.6,10.1-22.6,22.6h-6.5C77.9,67.1,91,54.1,107,54.1z"/>
		<path class="st1" d="M77.9,83.1h6.5c0,16-13,29-29,29v-6.5C67.8,105.7,77.9,95.6,77.9,83.1z"/>
		<path class="st1" d="M55.4,105.7L55.4,105.7v6.5l0,0c-16,0-29-13-29-29h6.5C32.8,95.6,42.9,105.7,55.4,105.7z"/>
		<path class="st2" d="M55.4,54.1L55.4,54.1v6.5l0,0c-12.4,0-22.6,10.1-22.6,22.6h-6.5C26.3,67.1,39.4,54.1,55.4,54.1z"/>
	</g>
</g>
</svg>
